<svg xmlns="http://www.w3.org/2000/svg" width="115.686" height="56.768" viewBox="0 0 115.686 56.768"><g transform="translate(4837.728 -4209.48)"><path d="M-36.336-7.44h6.414V-34.078h-6.414v10.435h-9.978V-34.078h-6.414V-7.44h6.414V-18.406h9.978Zm9.753-10.625c0,6.679,4.089,10.928,9.19,10.928a7.377,7.377,0,0,0,6.489-3.3v3h6.414V-28.614H-10.9v3a7.263,7.263,0,0,0-6.452-3.3C-22.495-28.917-26.583-24.743-26.583-18.065Zm15.679.038c0,3.377-2.138,5.237-4.576,5.237-2.4,0-4.576-1.9-4.576-5.275s2.176-5.2,4.576-5.2C-13.042-23.263-10.9-21.4-10.9-18.027ZM.162-7.44H6.576V-35.52H.162ZM20.455-23.719a3.636,3.636,0,0,1,3.939,3.643H16.366A3.983,3.983,0,0,1,20.455-23.719ZM30.47-14.46H23.643a3.408,3.408,0,0,1-3.338,2.049c-2.063,0-3.751-1.29-3.976-4.06H30.845a16.585,16.585,0,0,0,.113-1.9c0-6.451-4.314-10.549-10.428-10.549-6.227,0-10.578,4.174-10.578,10.891S14.378-7.136,20.53-7.136C25.744-7.136,29.458-10.324,30.47-14.46Z" transform="translate(-4753 4273.384)" fill="#fff"/><path d="M-36.146-7.44h6.489V-34.078h-6.489v10.435H-46.239V-34.078h-6.489V-7.44h6.489V-18.406h10.094Zm20.491-16.279c2.163,0,3.984,1.328,3.984,3.643h-8.12A4.013,4.013,0,0,1-15.655-23.719ZM-5.523-14.46h-6.906a3.45,3.45,0,0,1-3.377,2.049c-2.087,0-3.795-1.29-4.022-4.06H-5.143a16.4,16.4,0,0,0,.114-1.9c0-6.451-4.364-10.549-10.549-10.549-6.3,0-10.7,4.174-10.7,10.891S-21.8-7.136-15.579-7.136C-10.3-7.136-6.547-10.324-5.523-14.46Zm2.618-3.6c0,6.679,4.136,10.928,9.3,10.928a7.487,7.487,0,0,0,6.565-3.3v3h6.489V-28.614H12.957v3a7.37,7.37,0,0,0-6.527-3.3C1.232-28.917-2.9-24.743-2.9-18.065Zm15.862.038c0,3.377-2.163,5.237-4.629,5.237-2.429,0-4.629-1.9-4.629-5.275s2.2-5.2,4.629-5.2C10.794-23.263,12.957-21.4,12.957-18.027ZM24.151-7.44H30.64V-35.52H24.151Z" transform="translate(-4785 4245)" fill="#fff"/><path d="M5.957-19.684c.111-3.589-2.516-6.808-7.807-6.808-5.18,0-8.1,2.96-8.1,6.623A6.791,6.791,0,0,0-8.14-15.207c-3.589,1.7-5.291,4.477-5.291,7.659,0,4.81,3.811,7.955,9.842,7.955A13.618,13.618,0,0,0,4.995-2.331L7.4,0h7.363L8.51-6.142A28.95,28.95,0,0,0,10.8-10.286L12.58-13.5H6.253L4.884-11.174c-.148.37-.333.7-.481,1.036l-6.327-6.179C-3.293-17.76-4-18.833-4-19.906a1.892,1.892,0,0,1,2.072-1.85A1.816,1.816,0,0,1,0-19.684ZM-3.293-4.7c-2.516,0-4.033-1.48-4.033-3.293,0-1.48.888-2.775,2.664-3.7L1.11-6.1A7.194,7.194,0,0,1-3.293-4.7Z" transform="translate(-4822.297 4265.84)" fill="#00b6a7"/></g></svg>